# xmcd
#
# Track frame offsets:
#	150
#	8298
#	22926
#	39675
#	55832
#	67227
#	79340
#	98560
#	119604
#	131402
#	146699
#	160207
#
# Disc length: 2499
#
# Revision: 4
# Processed by: cddbd v1.5.1PL0 Copyright (c) Steve Scherf et al.
# Submitted via: CDex 1.50Beta7
# Normalized: r2:DSETVAR1,TSWAP
#
DISCID=9a09c10c
DTITLE=Various Artist - Best of Jazz - Cool Sounds for Autumn
DYEAR=2002
DGENRE=Jazz
TTITLE0=Peggy Lee - Im Begining to See the Light
TTITLE1=Dinah Washington - Since I Fell for You
TTITLE2=Ray Charles - Come Rain or Come Shine
TTITLE3=Ella Fitzgerald - Lets Do It
TTITLE4=Louis Armstrong - The Three of Us
TTITLE5=Nat King Cole - Walkin My Baby Back Home
TTITLE6=Billie Holiday - Do Nothin Til You Hear from Me
TTITLE7=Ella Fitzgerald and Louis Armstrong - They Cant Take That Away from Me
TTITLE8=Oscar Peterson - Little Girl
TTITLE9=Carmen McRae - Bye Bye Blackbird
TTITLE10=Etta James - Fool That I Am
TTITLE11=Lou Rawls - Willow Weep for Me
EXTD=YEAR: 2002
EXTT0=
EXTT1=
EXTT2=
EXTT3=
EXTT4=
EXTT5=
EXTT6=
EXTT7=
EXTT8=
EXTT9=
EXTT10=
EXTT11=
PLAYORDER=
